<svg width="111" height="111" viewBox="0 0 111 111" fill="none" xmlns="http://www.w3.org/2000/svg">
<circle cx="55.5" cy="55.5" r="55.5" fill="#FFDE68"/>
<circle cx="55.5" cy="55.5" r="49.5" fill="#3C3C3C"/>
<path d="M53.346 56.184C52.9167 56.38 52.562 56.6647 52.282 57.038C52.0113 57.402 51.876 57.7847 51.876 58.186C51.876 58.578 51.96 58.9187 52.128 59.208C52.296 59.4973 52.506 59.712 52.758 59.852C53.234 60.132 53.7007 60.272 54.158 60.272C55.1193 60.272 55.922 59.8893 56.566 59.124L53.346 56.184ZM54.102 61.168C53.0287 61.168 52.17 60.916 51.526 60.412C50.882 59.908 50.56 59.18 50.56 58.228C50.56 57.5933 50.756 57.038 51.148 56.562C51.5493 56.086 52.0113 55.7313 52.534 55.498C52.1887 55.1153 51.9367 54.7607 51.778 54.434C51.6287 54.1073 51.554 53.7153 51.554 53.258C51.554 52.614 51.7967 52.082 52.282 51.662C52.7767 51.242 53.4487 51.032 54.298 51.032C54.7553 51.032 55.194 51.13 55.614 51.326C56.0433 51.522 56.3793 51.7367 56.622 51.97L56.384 53.356C56.2813 53.3933 56.1507 53.412 55.992 53.412L55.726 53.398L55.376 51.956C55.1053 51.8813 54.746 51.844 54.298 51.844C53.85 51.844 53.514 51.984 53.29 52.264C53.066 52.544 52.954 52.824 52.954 53.104C52.954 53.384 53.01 53.6453 53.122 53.888C53.2433 54.1307 53.3647 54.3267 53.486 54.476C53.6167 54.616 53.836 54.84 54.144 55.148C54.4333 55.4467 55.4133 56.5153 57.084 58.354C57.4387 57.7287 57.616 56.786 57.616 55.526C57.616 55.2553 57.6067 55.036 57.588 54.868L56.412 54.756C56.412 54.4947 56.4913 54.2147 56.65 53.916H59.87L59.912 54.406C59.4827 54.5553 59.0533 54.6673 58.624 54.742C58.6147 55.2833 58.5213 55.9927 58.344 56.87C58.176 57.7473 57.9473 58.41 57.658 58.858L59.464 60.846C59.3147 61.1167 59.128 61.252 58.904 61.252L57.084 59.684C56.7387 60.076 56.2673 60.4213 55.67 60.72C55.082 61.0187 54.5593 61.168 54.102 61.168Z" fill="#D9D9D9"/>
<ellipse cx="26.5" cy="58" rx="14.5" ry="14" fill="#D9D9D9"/>
<ellipse cx="29" cy="57" rx="12" ry="13" fill="#3C3C3C"/>
<rect x="36" y="26" width="5" height="46" rx="2.5" fill="#D9D9D9"/>
<rect x="72" y="26" width="4" height="46" rx="2" fill="#D9D9D9"/>
<rect x="87" y="26" width="5" height="46" rx="2.5" fill="#D9D9D9"/>
<path d="M90 51L75 56.1962L75 45.8038L90 51Z" fill="#D9D9D9"/>
<ellipse cx="26.5" cy="58" rx="14.5" ry="14" fill="#D9D9D9"/>
<ellipse cx="29" cy="57" rx="12" ry="13" fill="#3C3C3C"/>
<rect x="36" y="26" width="5" height="46" rx="2.5" fill="#D9D9D9"/>
<rect x="72" y="26" width="4" height="46" rx="2" fill="#D9D9D9"/>
<rect x="87" y="26" width="5" height="46" rx="2.5" fill="#D9D9D9"/>
<path d="M90 51L75 56.1962L75 45.8038L90 51Z" fill="#D9D9D9"/>
<path d="M42.48 84.736C42.48 84.568 42.438 84.414 42.354 84.274C42.2793 84.134 42.172 84.0127 42.032 83.91C41.9013 83.8073 41.752 83.728 41.584 83.672C41.416 83.6067 41.248 83.574 41.08 83.574C40.996 83.574 40.884 83.588 40.744 83.616C40.6133 83.644 40.478 83.6813 40.338 83.728C40.198 83.7747 40.0627 83.826 39.932 83.882C39.8107 83.938 39.708 83.9987 39.624 84.064V90H38.91V83.672L38.602 83.364L39.106 82.874L39.526 83.308C39.7687 83.1773 40.0113 83.07 40.254 82.986C40.506 82.902 40.7487 82.86 40.982 82.86C41.402 82.86 41.7893 82.9487 42.144 83.126C42.4987 83.3033 42.746 83.5787 42.886 83.952C43.0167 83.728 43.166 83.546 43.334 83.406C43.502 83.266 43.6747 83.1587 43.852 83.084C44.0387 83 44.2207 82.944 44.398 82.916C44.5847 82.8787 44.762 82.86 44.93 82.86C45.266 82.86 45.5507 82.9207 45.784 83.042C46.0267 83.1633 46.2227 83.322 46.372 83.518C46.5213 83.7047 46.6287 83.9147 46.694 84.148C46.7593 84.372 46.792 84.596 46.792 84.82V90H46.064V84.918C46.064 84.7407 46.0407 84.5727 45.994 84.414C45.9567 84.2553 45.8913 84.1153 45.798 83.994C45.714 83.8727 45.5927 83.7747 45.434 83.7C45.2847 83.6253 45.098 83.588 44.874 83.588C44.286 83.588 43.8613 83.756 43.6 84.092C43.3387 84.4187 43.208 84.8807 43.208 85.478V90H42.48V84.736ZM51.7683 86.598C51.7683 86.5887 51.7263 86.5607 51.6423 86.514C51.5583 86.458 51.4417 86.402 51.2923 86.346C51.1523 86.2807 50.9843 86.2247 50.7883 86.178C50.5923 86.122 50.387 86.094 50.1723 86.094C50.0137 86.094 49.8597 86.1267 49.7103 86.192C49.5703 86.2573 49.449 86.346 49.3463 86.458C49.2437 86.57 49.1597 86.7007 49.0943 86.85C49.0383 86.99 49.0103 87.144 49.0103 87.312V88.194C49.0103 88.362 49.0383 88.5207 49.0943 88.67C49.1597 88.81 49.2437 88.936 49.3463 89.048C49.449 89.1507 49.5703 89.2347 49.7103 89.3C49.8503 89.3653 49.9997 89.398 50.1583 89.398C50.2983 89.398 50.457 89.3747 50.6343 89.328C50.821 89.272 50.9983 89.2113 51.1663 89.146C51.3623 89.0713 51.563 88.9873 51.7683 88.894V86.598ZM52.4823 89.314L52.7483 89.566L52.2443 90.07L51.8663 89.692C51.5677 89.86 51.255 89.9767 50.9283 90.042C50.611 90.1073 50.359 90.14 50.1723 90.14C49.911 90.14 49.6637 90.0887 49.4303 89.986C49.2063 89.874 49.0103 89.7293 48.8423 89.552C48.6743 89.3653 48.5437 89.1507 48.4503 88.908C48.357 88.6653 48.3103 88.4087 48.3103 88.138V87.354C48.3103 87.0833 48.357 86.8313 48.4503 86.598C48.5437 86.3553 48.6743 86.1453 48.8423 85.968C49.0103 85.7907 49.2063 85.6507 49.4303 85.548C49.6637 85.4453 49.911 85.394 50.1723 85.394C50.2377 85.394 50.3357 85.3987 50.4663 85.408C50.6063 85.4173 50.751 85.436 50.9003 85.464C51.059 85.492 51.2177 85.534 51.3763 85.59C51.535 85.6367 51.6703 85.702 51.7823 85.786V85.31C51.7823 85.0953 51.7403 84.8853 51.6563 84.68C51.5817 84.4653 51.479 84.274 51.3483 84.106C51.2177 83.938 51.0637 83.8027 50.8863 83.7C50.709 83.5973 50.5177 83.546 50.3123 83.546C50.2377 83.546 50.1023 83.5693 49.9063 83.616C49.7197 83.6627 49.5237 83.7093 49.3183 83.756C49.0757 83.812 48.8143 83.8773 48.5343 83.952L48.3383 83.294C48.6463 83.2193 48.931 83.1493 49.1923 83.084C49.4163 83.028 49.6357 82.9767 49.8503 82.93C50.065 82.8833 50.219 82.86 50.3123 82.86C50.611 82.86 50.891 82.93 51.1523 83.07C51.4137 83.21 51.6423 83.3967 51.8383 83.63C52.0343 83.854 52.1883 84.1153 52.3003 84.414C52.4123 84.7033 52.4683 85.002 52.4683 85.31L52.4823 89.314ZM57.8208 83.42L57.4288 84.008C57.2702 83.9147 57.1395 83.8447 57.0368 83.798C56.9342 83.742 56.8362 83.7 56.7428 83.672C56.6588 83.644 56.5748 83.63 56.4908 83.63C56.4162 83.6207 56.3322 83.616 56.2388 83.616C56.0988 83.616 55.9075 83.658 55.6648 83.742C55.4222 83.8167 55.1795 83.966 54.9368 84.19V89.986H54.2368V83.798L53.8728 83.434L54.3628 82.93L54.8528 83.406C55.1235 83.1633 55.3802 83.014 55.6228 82.958C55.8748 82.8927 56.0895 82.86 56.2668 82.86C56.4535 82.86 56.6588 82.8973 56.8828 82.972C57.1068 83.0467 57.4195 83.196 57.8208 83.42ZM61.4899 90L59.9919 86.654H59.5299V90H58.8159V80.2H59.5299V85.8H59.9779L61.4759 83.014H62.2739L60.5519 86.248L62.2879 90H61.4899ZM65.6363 86.626H65.6643C65.8323 86.626 65.9863 86.5933 66.1263 86.528C66.2663 86.4533 66.3877 86.36 66.4903 86.248C66.593 86.1267 66.6723 85.9913 66.7283 85.842C66.7937 85.6927 66.8263 85.534 66.8263 85.366V84.778C66.8263 84.554 66.7843 84.3673 66.7003 84.218C66.6163 84.0593 66.5043 83.9333 66.3643 83.84C66.2337 83.7467 66.075 83.6813 65.8883 83.644C65.711 83.5973 65.5243 83.574 65.3283 83.574C65.151 83.574 64.9783 83.602 64.8103 83.658C64.6517 83.714 64.5117 83.7933 64.3903 83.896C64.269 83.9987 64.171 84.1247 64.0963 84.274C64.0217 84.4233 63.9843 84.5913 63.9843 84.778V86.612L65.6363 86.626ZM63.2563 84.848C63.2563 84.568 63.303 84.3067 63.3963 84.064C63.499 83.8213 63.6343 83.6113 63.8023 83.434C63.9797 83.2567 64.1803 83.1167 64.4043 83.014C64.6377 82.9113 64.8897 82.86 65.1603 82.86H65.6363C65.8977 82.86 66.145 82.9113 66.3783 83.014C66.6117 83.1167 66.817 83.2567 66.9943 83.434C67.1717 83.6113 67.307 83.8213 67.4003 84.064C67.503 84.3067 67.5543 84.568 67.5543 84.848V85.31C67.5543 85.702 67.4843 86.0333 67.3443 86.304C67.2043 86.5653 67.013 86.78 66.7703 86.948C66.5277 87.116 66.243 87.2373 65.9163 87.312C65.599 87.3773 65.2583 87.41 64.8943 87.41C64.745 87.41 64.5957 87.4053 64.4463 87.396C64.297 87.3867 64.143 87.3727 63.9843 87.354V88.194C64.0497 88.5673 64.2223 88.866 64.5023 89.09C64.7917 89.3047 65.1183 89.412 65.4823 89.412C65.5197 89.412 65.6363 89.3933 65.8323 89.356C66.0377 89.3093 66.2523 89.2627 66.4763 89.216C66.7377 89.16 67.027 89.0947 67.3443 89.02L67.5123 89.762C67.167 89.8367 66.8543 89.8973 66.5743 89.944C66.3317 89.9907 66.0983 90.0327 65.8743 90.07C65.6597 90.1073 65.529 90.126 65.4823 90.126C65.1837 90.126 64.899 90.0747 64.6283 89.972C64.3577 89.86 64.1197 89.706 63.9143 89.51C63.709 89.314 63.5457 89.0853 63.4243 88.824C63.3123 88.5533 63.2563 88.2593 63.2563 87.942V84.848ZM69.6435 88.18V83.686H68.4535V82.986H69.6435V80.2H70.3855V82.986H71.6735V83.686H70.3855V88.25C70.3855 88.6327 70.4788 88.8987 70.6655 89.048C70.8615 89.188 71.0948 89.258 71.3655 89.258H71.6735V90.014H71.2955C71.0622 90.014 70.8428 89.9813 70.6375 89.916C70.4415 89.8413 70.2688 89.734 70.1195 89.594C69.9702 89.4447 69.8535 89.2533 69.7695 89.02C69.6855 88.7867 69.6435 88.5067 69.6435 88.18Z" fill="white"/>
</svg>
